<svg width="102" height="20" viewBox="0 0 102 20" fill="none" xmlns="http://www.w3.org/2000/svg">
<path d="M9.7284 19C8.80658 19.1728 7.90123 19.2469 7.01235 19.2222C6.13169 19.2058 5.34156 19.0535 4.64198 18.7654C3.95062 18.4691 3.42387 17.9959 3.06173 17.3457C2.73251 16.7366 2.55967 16.1193 2.54321 15.4938C2.52675 14.8601 2.51852 14.144 2.51852 13.3457V1.96296H5.87654V13.1481C5.87654 13.6667 5.88066 14.1358 5.88889 14.5556C5.90535 14.9671 5.99177 15.2963 6.14815 15.5432C6.44444 16.0123 6.9177 16.2675 7.5679 16.3086C8.21811 16.3498 8.93827 16.3169 9.7284 16.2099V19ZM0.246914 8.25926V5.66667H9.7284V8.25926H0.246914ZM21.7861 19V12.7037C21.7861 12.3992 21.7696 12.0123 21.7367 11.5432C21.7038 11.0658 21.6009 10.5885 21.428 10.1111C21.2552 9.63374 20.9713 9.23457 20.5762 8.91358C20.1894 8.59259 19.6379 8.4321 18.9219 8.4321C18.6338 8.4321 18.3252 8.47737 17.9959 8.5679C17.6667 8.65844 17.3581 8.83539 17.07 9.09877C16.782 9.35391 16.5433 9.73251 16.354 10.2346C16.1729 10.7366 16.0824 11.4033 16.0824 12.2346L14.1564 11.321C14.1564 10.2675 14.3704 9.27984 14.7984 8.35802C15.2264 7.43621 15.8684 6.69136 16.7243 6.12346C17.5885 5.55555 18.675 5.2716 19.9836 5.2716C21.0289 5.2716 21.8807 5.44856 22.5392 5.80247C23.1976 6.15638 23.7079 6.60494 24.07 7.14815C24.4404 7.69136 24.7038 8.25926 24.8601 8.85185C25.0165 9.43621 25.1112 9.97119 25.1441 10.4568C25.177 10.9424 25.1935 11.2963 25.1935 11.5185V19H21.7861ZM12.675 19V1.22222H15.6626V10.358H16.0824V19H12.675ZM34.5945 19.3704C33.2283 19.3704 32.0225 19.0782 30.9772 18.4938C29.9402 17.9012 29.1254 17.0905 28.5328 16.0617C27.9484 15.0247 27.6562 13.8395 27.6562 12.5062C27.6562 11.0494 27.9443 9.78189 28.5204 8.7037C29.0966 7.62551 29.8908 6.79012 30.9032 6.19753C31.9155 5.59671 33.0801 5.2963 34.397 5.2963C35.7962 5.2963 36.9855 5.62551 37.9649 6.28395C38.9443 6.94239 39.6686 7.86831 40.1377 9.06173C40.6069 10.2551 40.7715 11.6584 40.6316 13.2716H37.3106V12.037C37.3106 10.679 37.0925 9.7037 36.6562 9.11111C36.2283 8.51029 35.5246 8.20988 34.5451 8.20988C33.4011 8.20988 32.5575 8.55967 32.0143 9.25926C31.4793 9.95062 31.2118 10.9753 31.2118 12.3333C31.2118 13.5761 31.4793 14.5391 32.0143 15.2222C32.5575 15.8971 33.3517 16.2346 34.397 16.2346C35.0554 16.2346 35.6192 16.0905 36.0883 15.8025C36.5575 15.5144 36.9155 15.0988 37.1624 14.5556L40.5204 15.5185C40.0184 16.7366 39.2242 17.6831 38.1377 18.358C37.0595 19.0329 35.8785 19.3704 34.5945 19.3704ZM30.1748 13.2716V10.7778H39.0143V13.2716H30.1748Z" fill="#1E1E1E"/>
<path d="M43.4192 19V1.22222H46.7772V9.41975L53.5426 1.22222H57.6414L50.2093 9.98765L58.1105 19H53.8636L46.7772 10.9012V19H43.4192ZM60.0868 19V0.851853H63.4448V19H60.0868ZM72.109 19.3951C71.0637 19.3951 70.2119 19.2181 69.5534 18.8642C68.895 18.5103 68.3806 18.0617 68.0102 17.5185C67.6481 16.9753 67.3888 16.4115 67.2324 15.8272C67.0761 15.2346 66.9814 14.6955 66.9485 14.2099C66.9156 13.7243 66.8991 13.3704 66.8991 13.1481V5.66667H70.3065V11.963C70.3065 12.2675 70.323 12.6584 70.3559 13.1358C70.3888 13.6049 70.4917 14.0782 70.6645 14.5556C70.8374 15.0329 71.1172 15.4321 71.504 15.7531C71.8991 16.0741 72.4547 16.2346 73.1707 16.2346C73.4588 16.2346 73.7674 16.1893 74.0966 16.0988C74.4259 16.0082 74.7345 15.8354 75.0226 15.5802C75.3106 15.3169 75.5452 14.9342 75.7263 14.4321C75.9156 13.9218 76.0102 13.2551 76.0102 12.4321L77.9361 13.3457C77.9361 14.3992 77.7222 15.3868 77.2942 16.3086C76.8662 17.2305 76.2201 17.9753 75.3559 18.5432C74.4999 19.1111 73.4176 19.3951 72.109 19.3951ZM76.43 19V14.5802H76.0102V5.66667H79.3929V19H76.43ZM89.3866 19.3704C88.0615 19.3704 86.9545 19.0617 86.0656 18.4444C85.1767 17.8272 84.5059 16.9877 84.0532 15.9259C83.6088 14.8642 83.3866 13.6667 83.3866 12.3333C83.3866 11 83.6088 9.80247 84.0532 8.74074C84.4977 7.67901 85.152 6.83951 86.0162 6.22222C86.8804 5.60494 87.9462 5.2963 89.2137 5.2963C90.4895 5.2963 91.6006 5.60082 92.5471 6.20988C93.4936 6.81893 94.2261 7.65432 94.7446 8.71605C95.2713 9.76955 95.5347 10.9753 95.5347 12.3333C95.5347 13.6667 95.2755 14.8642 94.7569 15.9259C94.2467 16.9877 93.5306 17.8272 92.6088 18.4444C91.687 19.0617 90.6129 19.3704 89.3866 19.3704ZM82.8187 19V1.22222H86.2014V9.8642H85.7816V19H82.8187ZM88.8434 16.3827C89.5676 16.3827 90.1602 16.2016 90.6211 15.8395C91.082 15.4774 91.4236 14.9918 91.6458 14.3827C91.8681 13.7654 91.9792 13.0823 91.9792 12.3333C91.9792 11.5926 91.8639 10.9177 91.6335 10.3086C91.403 9.69136 91.045 9.20165 90.5594 8.83951C90.082 8.46914 89.4689 8.28395 88.7199 8.28395C88.0203 8.28395 87.4524 8.45268 87.0162 8.79012C86.5882 9.12757 86.2755 9.60082 86.0779 10.2099C85.8804 10.8189 85.7816 11.5267 85.7816 12.3333C85.7816 13.1399 85.8804 13.8477 86.0779 14.4568C86.2755 15.0658 86.5964 15.5391 87.0409 15.8765C87.4936 16.214 88.0944 16.3827 88.8434 16.3827ZM98.3123 19V15.642H101.67V19H98.3123Z" fill="#70D460"/>
</svg>
